<svg id="ehAi8S6CLKa1" xmlns="http://www.w3.org/2000/svg" viewBox="0 0 116 90"
  xmlns:xlink="http://www.w3.org/1999/xlink" shape-rendering="geometricPrecision" text-rendering="geometricPrecision">
  <style>
    #ehAi8S6CLKa2_tr {
      animation: ehAi8S6CLKa2_tr__tr 3000ms linear infinite normal forwards
    }

    @keyframes ehAi8S6CLKa2_tr__tr {
      0% {
        transform: translate(38.112067px, 38.021572px) rotate(0deg)
      }

      100% {
        transform: translate(38.112067px, 38.021572px) rotate(120deg)
      }
    }

    #ehAi8S6CLKa3_tr {
      animation: ehAi8S6CLKa3_tr__tr 3000ms linear infinite normal forwards
    }

    @keyframes ehAi8S6CLKa3_tr__tr {
      0% {
        transform: translate(90.418771px, 64.713569px) rotate(0deg)
      }

      100% {
        transform: translate(90.418771px, 64.713569px) rotate(-180deg)
      }
    }
  </style>
  <path id="ehAi8S6CLKa2"
    d="M990.1,232.6C987.9,233.4,985.7,234,983.4,234.4L981.8,239.3L974.7,239.3L973.1,234.4C970.8,234,968.6,233.4,966.4,232.6L962.5,236.1L956.4,232.6L957.5,227.5C955.7,226.1,954.1,224.4,952.6,222.6L947.5,223.7L944,217.6L947.5,213.7C946.7,211.5,946.1,209.3,945.7,207L940.8,205.4L940.8,198.3L945.7,196.7C946.1,194.4,946.7,192.2,947.5,190L944,186.1L947.5,180L952.6,181.1C954,179.3,955.7,177.7,957.5,176.2L956.4,171.1L962.5,167.6L966.4,171.1C968.6,170.3,970.8,169.7,973.1,169.3L974.7,164.4L981.8,164.4L983.4,169.3C985.7,169.7,987.9,170.3,990.1,171.1L994,167.6L1000.1,171.1L999,176.2C1000.8,177.6,1002.4,179.3,1003.9,181.1L1009,180L1012.5,186.1L1009,190C1009.8,192.2,1010.4,194.4,1010.8,196.7L1015.7,198.3L1015.7,205.4L1010.8,207C1010.4,209.3,1009.8,211.5,1009,213.7L1012.5,217.6L1009,223.7L1003.9,222.6C1002.5,224.4,1000.8,226,999,227.5L1000.1,232.6L994,236.1L990.1,232.6ZM1001.1,201.9C1001.1,189.3,990.9,179.1,978.3,179.1C965.7,179.1,955.5,189.3,955.5,201.9C955.5,214.5,965.7,224.7,978.3,224.7C990.9,224.7,1001.1,214.5,1001.1,201.9Z"
    transform="translate(-978.25,-201.850006)" fill="#1d1b0d" stroke="none" stroke-width="1" />

  <path id="ehAi8S6CLKa3"
    d="M68.67661,59.85L73.67661,54.85L78.07661,57.55C79.87661,56.45,81.87661,55.55,83.97661,55.05L85.17661,50.05L92.27661,50.05L93.47661,55.05C95.57661,55.55,97.57661,56.35,99.37661,57.55L103.77661,54.85L108.77661,59.85L106.07661,64.25C107.17661,66.05,108.07661,68.05,108.57661,70.15L113.57661,71.35L113.57661,78.45L108.57661,79.65C108.07661,81.75,107.27661,83.75,106.07661,85.55L108.77661,89.95L103.77661,94.95L99.37661,92.25C97.57661,93.35,95.57661,94.25,93.47661,94.75L92.27661,99.75L85.17661,99.75L83.97661,94.75C81.87661,94.25,79.87661,93.45,78.07661,92.25L73.67661,94.95L68.67661,89.95L71.37661,85.55C70.27661,83.75,69.37661,81.75,68.87661,79.65L63.87661,78.45L63.87661,71.35L68.87661,70.15C69.37661,68.05,70.17661,66.05,71.37661,64.25L68.67661,59.85ZM88.87661,87.75C95.87661,87.75,101.67661,82.05,101.67661,74.95C101.67661,67.95,95.97661,62.15,88.87661,62.15C81.87661,62.15,76.07661,67.85,76.07661,74.95C76.07661,82.05,81.87661,87.75,88.87661,87.75Z"
    transform="translate(-88.72661,-74.9)" fill="#4d4b40" stroke="none" stroke-width="1" />
</svg>