<?xml version="1.0" encoding="UTF-8"?>
<svg id="b" data-name="Layer 1" xmlns="http://www.w3.org/2000/svg" width="24" height="24" viewBox="0 0 24 24">
  <path d="M9.73,7.83c.18-.41,.27-.86,.27-1.33,0-1.93-1.57-3.5-3.5-3.5s-3.5,1.57-3.5,3.5,1.57,3.5,3.5,3.5c.46,0,.9-.09,1.31-.26l3.18,3.18,1.92-1.92-3.18-3.17Zm-4.73-1.33c0-.83,.67-1.5,1.5-1.5s1.5,.67,1.5,1.5c0,.31-.09,.6-.26,.84-.26,.4-.72,.66-1.24,.66-.83,0-1.5-.67-1.5-1.5Zm15.81,13.58c-.19,.27-.5,.42-.81,.42-.15,0-.3-.03-.45-.11l-2-1-.286-.206-3.51-3.501c-.196-.195-.196-.512,0-.708l1.213-1.213c.195-.195,.511-.195,.707,0l5.036,5.027c.34,.35,.39,.9,.1,1.29Z" fill="blue"/>
  <path d="M20.81,3.92c-.29-.4-.82-.53-1.26-.31l-2,1c-.09,.04-.18,.11-.26,.18L7.81,14.26c-.41-.17-.85-.26-1.31-.26-1.93,0-3.5,1.57-3.5,3.5s1.57,3.5,3.5,3.5,3.5-1.57,3.5-3.5c0-.47-.09-.92-.27-1.33L20.71,5.21c.34-.35,.39-.9,.1-1.29ZM6.5,19c-.83,0-1.5-.67-1.5-1.5s.67-1.5,1.5-1.5c.52,0,.98,.26,1.24,.66,.17,.24,.26,.53,.26,.84,0,.83-.67,1.5-1.5,1.5Z"/>
</svg>